<?xml version="1.0" encoding="utf-8"?>
<!-- Generator: Adobe Illustrator 26.2.1, SVG Export Plug-In . SVG Version: 6.00 Build 0)  -->
<svg
		fill="#ff0000"
		version="1.1" id="Glyph" xmlns="http://www.w3.org/2000/svg" xmlns:xlink="http://www.w3.org/1999/xlink" x="0px" y="0px"
	 viewBox="0 0 512 512" enable-background="new 0 0 512 512" xml:space="preserve">
<g>
	<g>
		<polygon points="224,233.052 297.578,184 224,134.948 		"/>
		<path d="M256,88c-52.935,0-96,43.065-96,96s43.065,96,96,96s96-43.065,96-96S308.935,88,256,88z M316.438,190.656l-96,64
			C219.099,255.549,217.552,256,216,256c-1.294,0-2.591-0.313-3.774-0.947C209.624,253.661,208,250.95,208,248V120
			c0-2.95,1.624-5.661,4.225-7.053c2.602-1.393,5.758-1.239,8.212,0.397l96,64c2.226,1.483,3.562,3.981,3.562,6.656
			S318.663,189.173,316.438,190.656z"/>
	</g>
	<path d="M378.248,245.56c1.57,1.624,3.66,2.44,5.753,2.44c2.001,0,4.006-0.747,5.559-2.248C406.61,229.273,416,207.343,416,184
		s-9.39-45.273-26.44-61.752c-3.177-3.07-8.242-2.984-11.312,0.193c-3.07,3.177-2.984,8.242,0.193,11.312
		C392.343,147.189,400,165.035,400,184s-7.657,36.811-21.56,50.248C375.263,237.318,375.177,242.383,378.248,245.56z"/>
	<path d="M413.388,90.087c-3.266-2.977-8.325-2.742-11.301,0.525c-2.976,3.266-2.741,8.325,0.525,11.301
		C426.722,123.884,440,153.037,440,184s-13.278,60.116-37.388,82.087c-3.266,2.976-3.501,8.036-0.525,11.301
		c1.579,1.732,3.743,2.612,5.916,2.612c1.923,0,3.853-0.689,5.386-2.087C440.867,252.873,456,219.521,456,184
		S440.867,115.127,413.388,90.087z"/>
	<path d="M437.5,50.19c-3.208-3.037-8.271-2.899-11.31,0.31c-3.038,3.208-2.899,8.271,0.31,11.31C461,94.473,480,137.868,480,184
		s-19,89.527-53.5,122.19c-3.208,3.038-3.347,8.101-0.31,11.31c1.574,1.662,3.69,2.5,5.811,2.5c1.974,0,3.952-0.727,5.499-2.19
		C475.224,282.093,496,234.572,496,184S475.224,85.907,437.5,50.19z"/>
	<path d="M122.44,245.752c1.553,1.501,3.557,2.248,5.559,2.248c2.093,0,4.184-0.816,5.753-2.44c3.07-3.177,2.984-8.242-0.193-11.312
		C119.657,220.811,112,202.965,112,184s7.657-36.811,21.56-50.248c3.177-3.07,3.263-8.135,0.193-11.312
		c-3.07-3.176-8.135-3.263-11.312-0.193C105.39,138.727,96,160.657,96,184S105.39,229.273,122.44,245.752z"/>
	<path d="M103.998,280c2.172,0,4.337-0.879,5.916-2.612c2.976-3.266,2.741-8.325-0.525-11.301C85.278,244.116,72,214.963,72,184
		s13.278-60.116,37.388-82.087c3.266-2.976,3.501-8.036,0.525-11.301c-2.976-3.265-8.036-3.501-11.301-0.525
		C71.133,115.127,56,148.479,56,184s15.133,68.873,42.612,93.913C100.145,279.311,102.074,280,103.998,280z"/>
	<path d="M32,184c0-46.132,19-89.527,53.5-122.19c3.208-3.038,3.347-8.101,0.31-11.31c-3.039-3.209-8.103-3.347-11.31-0.31
		C36.776,85.907,16,133.428,16,184s20.776,98.093,58.5,133.81c1.547,1.464,3.524,2.19,5.499,2.19c2.121,0,4.238-0.838,5.811-2.5
		c3.038-3.208,2.899-8.271-0.31-11.31C51,273.527,32,230.132,32,184z"/>
	<path d="M368.716,336H143.284C126.034,336,112,350.034,112,367.284v49.433c0,17.25,14.034,31.284,31.284,31.284h225.433
		c17.25,0,31.284-14.034,31.284-31.284v-49.433C400,350.034,385.966,336,368.716,336z M192,432h-48c-4.418,0-8-3.582-8-8v-64
		c0-4.418,3.582-8,8-8s8,3.582,8,8v56h40c4.418,0,8,3.582,8,8S196.418,432,192,432z M224,424c0,4.418-3.582,8-8,8s-8-3.582-8-8v-64
		c0-4.418,3.582-8,8-8s8,3.582,8,8V424z M303.491,362.809l-24,64C278.32,429.932,275.335,432,272,432s-6.32-2.068-7.491-5.191
		l-24-64c-1.551-4.137,0.545-8.749,4.682-10.3c4.14-1.551,8.749,0.545,10.3,4.682L272,401.216l16.509-44.025
		c1.551-4.137,6.161-6.235,10.3-4.682C302.946,354.061,305.042,358.672,303.491,362.809z M368,384c4.418,0,8,3.582,8,8s-3.582,8-8,8
		h-40v16h40c4.418,0,8,3.582,8,8s-3.582,8-8,8h-48c-4.418,0-8-3.582-8-8v-64c0-4.418,3.582-8,8-8h48c4.418,0,8,3.582,8,8
		s-3.582,8-8,8h-40v16H368z"/>
</g>
</svg>
